<mxfile host="app.diagrams.net" agent="Mozilla/5.0 (Macintosh; Intel Mac OS X 10_15_7) AppleWebKit/537.36 (KHTML, like Gecko) Chrome/129.0.0.0 Safari/537.36" version="24.7.17">
  <diagram id="WvHjm1HEhhVKs3oMtiiu" name="Page-1">
    <mxGraphModel dx="603" dy="431" grid="1" gridSize="10" guides="1" tooltips="1" connect="1" arrows="1" fold="1" page="1" pageScale="1" pageWidth="1100" pageHeight="850" math="1" shadow="0">
      <root>
        <mxCell id="0" />
        <mxCell id="1" parent="0" />
        <mxCell id="GxVwanjRkrD1fkN1Xo48-1" value="&lt;font face=&quot;Helvetica&quot; style=&quot;font-size: 15px;&quot;&gt;$$e0\rightarrow[+\,\,e0\,\,e4,\,\,-\,\,e2\,\,e1,\,\,x]$$&lt;/font&gt;" style="text;html=1;strokeColor=none;fillColor=none;align=center;verticalAlign=middle;whiteSpace=wrap;rounded=0;" parent="1" vertex="1">
          <mxGeometry x="40" y="40" width="214" height="20" as="geometry" />
        </mxCell>
        <mxCell id="GxVwanjRkrD1fkN1Xo48-2" value="&lt;font face=&quot;Helvetica&quot; style=&quot;font-size: 15px;&quot;&gt;$$e1\rightarrow[8]$$&lt;/font&gt;" style="text;html=1;strokeColor=none;fillColor=none;align=center;verticalAlign=middle;whiteSpace=wrap;rounded=0;" parent="1" vertex="1">
          <mxGeometry x="40" y="65" width="65" height="22" as="geometry" />
        </mxCell>
        <mxCell id="GxVwanjRkrD1fkN1Xo48-3" value="&lt;font face=&quot;Helvetica&quot; style=&quot;font-size: 15px;&quot;&gt;$$e2\rightarrow[+\,\,e0\,\,e1]$$&lt;/font&gt;" style="text;html=1;strokeColor=none;fillColor=none;align=center;verticalAlign=middle;whiteSpace=wrap;rounded=0;" parent="1" vertex="1">
          <mxGeometry x="40" y="92" width="117" height="20" as="geometry" />
        </mxCell>
        <mxCell id="GxVwanjRkrD1fkN1Xo48-4" value="&lt;font face=&quot;Helvetica&quot; style=&quot;font-size: 15px;&quot;&gt;$$e4\rightarrow[-\,\,e1\,\,e1,\,\,0]$$&lt;/font&gt;" style="text;html=1;strokeColor=none;fillColor=none;align=center;verticalAlign=middle;whiteSpace=wrap;rounded=0;" parent="1" vertex="1">
          <mxGeometry x="40" y="117" width="139" height="20" as="geometry" />
        </mxCell>
      </root>
    </mxGraphModel>
  </diagram>
</mxfile>
